<svg width="100%" height="100%" viewBox="0 0 800 464" version="1.1" xmlns="http://www.w3.org/2000/svg" xmlns:xlink="http://www.w3.org/1999/xlink" xml:space="preserve" xmlns:serif="http://www.serif.com/" style="fill-rule:evenodd;clip-rule:evenodd;stroke-linejoin:round;stroke-miterlimit:2;">
    <g transform="matrix(1.34007,0,0,1.34007,-149.798,-145.786)">
        <g>
            <path d="M582.5,357.39C585.04,358.11 587.07,359.51 588.58,361.59C590.09,363.67 590.85,366.61 590.85,370.41C590.85,375.9 589.36,380 586.38,382.69C583.4,385.39 579.32,386.73 574.14,386.73L560.97,386.73C560.3,386.73 559.97,386.4 559.97,385.73L559.97,336.22C559.97,335.55 560.3,335.22 560.97,335.22L586.23,335.22C586.74,335.22 587,335.4 587,335.76L586.85,336.53L585.39,341.53C585.24,342.04 584.85,342.3 584.23,342.3L569.14,342.3L569.14,356.31L573.07,356.31C576.81,356.32 579.96,356.67 582.5,357.39ZM579.34,377.95C580.91,376.67 581.69,374.25 581.69,370.71C581.69,367.68 581,365.67 579.61,364.67C578.22,363.67 576.02,363.17 572.99,363.17L569.22,363.17L569.22,379.88L572.22,379.88C575.4,379.88 577.77,379.24 579.34,377.95Z" style="fill:rgb(0,55,103);fill-rule:nonzero;"/>
            <path d="M619.8,387.81C619.49,387.96 619.26,388.04 619.11,388.04C618.9,388.04 618.73,387.89 618.57,387.58C618.11,386.66 617.65,385.07 617.18,382.81C615.33,384.76 613.66,386.12 612.17,386.89C610.68,387.66 608.88,388.04 606.78,388.04C603.39,388.04 600.72,387.03 598.77,385C596.82,382.97 595.84,380.24 595.84,376.8C595.84,373.41 596.7,370.81 598.42,368.98C600.14,367.16 602.44,365.94 605.31,365.32C608.18,364.7 611.73,364.4 615.94,364.4L615.94,361.4C615.94,359.14 615.49,357.52 614.59,356.55C613.69,355.58 612.11,355.09 609.85,355.09C608,355.09 605.18,355.76 601.38,357.09C601.02,357.24 600.74,357.32 600.53,357.32C600.32,357.32 600.17,357.17 600.07,356.86L598.53,352.16C598.48,352.01 598.45,351.83 598.45,351.62C598.45,351.42 598.55,351.24 598.76,351.08C598.96,350.93 599.35,350.75 599.92,350.54C601.2,350.03 602.93,349.58 605.12,349.19C607.3,348.8 609.37,348.61 611.32,348.61C615.79,348.61 619.01,349.57 620.98,351.5C622.95,353.42 623.94,356.39 623.94,360.39L623.94,375.25C623.94,379.1 624.5,382.13 625.63,384.34C625.83,384.7 625.94,384.96 625.94,385.11C625.94,385.26 625.84,385.37 625.63,385.42L619.8,387.81ZM615.95,369.48L613.72,369.48C607.15,369.48 603.86,371.74 603.86,376.26C603.86,377.9 604.4,379.29 605.48,380.42C606.56,381.55 607.92,382.11 609.56,382.11C611.61,382.11 613.74,381.01 615.95,378.8L615.95,369.48Z" style="fill:rgb(0,55,103);fill-rule:nonzero;"/>
            <path d="M663.31,348.77C663.52,348.77 663.64,348.83 663.69,348.96C663.74,349.09 663.77,349.31 663.77,349.61L663.77,386.26C663.77,386.57 663.62,386.72 663.31,386.72L655.69,386.72C655.38,386.72 655.23,386.57 655.23,386.26L655.23,370.94L642.9,370.94L642.9,386.26C642.9,386.57 642.75,386.72 642.44,386.72L634.82,386.72C634.51,386.72 634.36,386.57 634.36,386.26L634.36,351C634.36,350.74 634.4,350.56 634.48,350.46C634.56,350.36 634.72,350.28 634.98,350.23L641.76,348.84C641.96,348.79 642.2,348.76 642.45,348.76C642.66,348.76 642.78,348.82 642.84,348.95C642.89,349.08 642.92,349.3 642.92,349.6L642.92,365L655.24,365L655.24,351C655.24,350.74 655.28,350.56 655.36,350.46C655.44,350.36 655.6,350.28 655.86,350.23L662.64,348.84C662.82,348.8 663.05,348.77 663.31,348.77Z" style="fill:rgb(0,55,103);fill-rule:nonzero;"/>
            <path d="M683.63,365.17L699.49,349.15C699.8,348.84 700.03,348.69 700.18,348.69C700.33,348.69 700.64,348.9 701.1,349.31L704.72,352.31C704.87,352.46 704.95,352.62 704.95,352.77C704.95,352.92 704.82,353.13 704.57,353.39L691.71,365.94L706.11,383.27C706.37,383.63 706.51,383.87 706.53,384C706.56,384.13 706.44,384.27 706.18,384.42L700.25,387.73C699.89,387.93 699.66,388.04 699.56,388.04C699.46,388.04 699.23,387.83 698.87,387.42L683.62,367.71L683.62,386.27C683.62,386.58 683.47,386.73 683.16,386.73L675.54,386.73C675.23,386.73 675.08,386.58 675.08,386.27L675.08,334.6C675.08,334.34 675.12,334.16 675.2,334.06C675.28,333.96 675.44,333.88 675.7,333.83L682.48,332.44C682.68,332.39 682.92,332.36 683.17,332.36C683.38,332.36 683.5,332.42 683.56,332.55C683.61,332.68 683.64,332.9 683.64,333.2L683.64,365.17L683.63,365.17Z" style="fill:rgb(0,55,103);fill-rule:nonzero;"/>
        </g>
        <path d="M133.07,413.39L133.07,443.46C133.07,443.86 132.87,444.07 132.46,444.07L128.11,444.07C127.7,444.07 127.5,443.87 127.5,443.46L127.5,430.92C125.22,431.82 123.1,432.28 121.14,432.28C118.33,432.28 116.2,431.57 114.73,430.15C113.26,428.73 112.53,426.65 112.53,423.91L112.53,413.39C112.53,412.98 112.73,412.78 113.14,412.78L117.49,412.78C117.9,412.78 118.1,412.98 118.1,413.39L118.1,423.54C118.1,425.04 118.47,426.13 119.22,426.81C119.97,427.5 121.12,427.84 122.68,427.84C124.15,427.84 125.75,427.45 127.5,426.67L127.5,413.39C127.5,412.98 127.7,412.78 128.11,412.78L132.46,412.78C132.87,412.78 133.07,412.98 133.07,413.39Z" style="fill:rgb(0,55,103);fill-rule:nonzero;"/>
        <path d="M153.23,444.72C153.04,444.81 152.9,444.86 152.81,444.86C152.68,444.86 152.58,444.77 152.48,444.58C152.2,444.02 151.92,443.05 151.64,441.68C150.52,442.86 149.5,443.69 148.6,444.16C147.69,444.63 146.6,444.86 145.33,444.86C143.27,444.86 141.65,444.24 140.47,443.01C139.28,441.78 138.69,440.12 138.69,438.03C138.69,435.97 139.21,434.39 140.26,433.28C141.3,432.17 142.7,431.43 144.45,431.06C146.2,430.68 148.35,430.5 150.91,430.5L150.91,428.68C150.91,427.31 150.64,426.33 150.09,425.73C149.54,425.14 148.59,424.84 147.21,424.84C146.09,424.84 144.37,425.25 142.07,426.05C141.85,426.14 141.68,426.19 141.56,426.19C141.43,426.19 141.34,426.1 141.28,425.91L140.35,423.06C140.32,422.97 140.3,422.86 140.3,422.73C140.3,422.61 140.36,422.5 140.49,422.4C140.61,422.31 140.85,422.2 141.19,422.07C141.97,421.76 143.02,421.49 144.35,421.25C145.67,421.02 146.93,420.9 148.11,420.9C150.82,420.9 152.78,421.48 153.98,422.65C155.18,423.82 155.78,425.62 155.78,428.05L155.78,437.08C155.78,439.42 156.12,441.26 156.81,442.6C156.94,442.82 157,442.97 157,443.07C157,443.17 156.94,443.23 156.81,443.26L153.23,444.72ZM150.89,433.59L149.53,433.59C145.54,433.59 143.54,434.96 143.54,437.71C143.54,438.71 143.87,439.55 144.52,440.24C145.18,440.93 146,441.27 147,441.27C148.25,441.27 149.54,440.6 150.88,439.26L150.88,433.59L150.89,433.59Z" style="fill:rgb(0,55,103);fill-rule:nonzero;"/>
        <path d="M176.94,442.48C176.97,442.54 176.99,442.62 176.99,442.71C176.99,442.84 176.93,442.94 176.8,443.04C176.21,443.51 175.34,443.93 174.2,444.3C173.06,444.67 171.92,444.86 170.76,444.86C167.55,444.86 165.08,443.89 163.35,441.94C161.62,439.99 160.75,437.13 160.75,433.36C160.75,429.46 161.68,426.41 163.53,424.22C165.38,422.03 167.97,420.92 171.27,420.92C172.42,420.92 173.57,421.12 174.71,421.53C175.85,421.94 176.73,422.47 177.35,423.12C177.51,423.28 177.52,423.46 177.4,423.68L175.9,426.35C175.84,426.51 175.76,426.58 175.67,426.58C175.58,426.58 175.44,426.52 175.25,426.39C173.78,425.36 172.46,424.85 171.27,424.85C167.96,424.85 166.31,427.58 166.31,433.03C166.31,435.77 166.71,437.78 167.5,439.04C168.29,440.3 169.63,440.93 171.5,440.93C172.72,440.93 173.95,440.46 175.2,439.53C175.48,439.34 175.67,439.36 175.76,439.58L176.94,442.48Z" style="fill:rgb(0,55,103);fill-rule:nonzero;"/>
        <path d="M190.06,421.64C191.01,421.16 192.19,420.92 193.59,420.92C194.62,420.92 195.57,421.24 196.44,421.88C197.31,422.52 197.89,423.37 198.17,424.43C199.73,423.06 201,422.13 201.98,421.65C202.96,421.17 204.17,420.93 205.61,420.93C208.98,420.93 210.66,423.27 210.66,427.95L210.66,443.81C210.66,444 210.57,444.09 210.38,444.09L205.75,444.09C205.56,444.09 205.47,444 205.47,443.81L205.47,429.4C205.47,426.53 204.69,425.1 203.13,425.1C201.7,425.1 200.2,425.8 198.64,427.2L198.64,443.8C198.64,443.99 198.55,444.08 198.36,444.08L193.73,444.08C193.54,444.08 193.45,443.99 193.45,443.8L193.45,429.39C193.45,426.52 192.67,425.09 191.11,425.09C189.68,425.09 188.18,425.79 186.62,427.19L186.62,443.79C186.62,443.98 186.53,444.07 186.34,444.07L181.71,444.07C181.52,444.07 181.43,443.98 181.43,443.79L181.43,429.66C181.43,426.42 181.16,424.16 180.63,422.88C180.57,422.69 180.54,422.58 180.54,422.55C180.54,422.4 180.62,422.29 180.77,422.22L184.32,421.05C184.76,420.89 185.01,420.88 185.07,421C185.41,421.53 185.79,422.68 186.19,424.46C187.82,423.07 189.11,422.13 190.06,421.64Z" style="fill:rgb(0,55,103);fill-rule:nonzero;"/>
        <path d="M231.62,441.66C229.87,439.52 229,436.6 229,432.89C229,429.18 229.87,426.26 231.62,424.12C233.37,421.98 235.75,420.92 238.78,420.92C240.74,420.92 242.47,421.4 243.95,422.37C245.43,423.34 246.57,424.72 247.36,426.53C248.15,428.34 248.55,430.46 248.55,432.89C248.55,436.6 247.68,439.52 245.93,441.66C244.18,443.8 241.8,444.86 238.77,444.86C235.74,444.86 233.36,443.8 231.62,441.66ZM235.48,426.84C234.87,428.17 234.57,430.18 234.57,432.9C234.57,435.61 234.87,437.63 235.48,438.96C236.09,440.29 237.19,440.95 238.78,440.95C240.37,440.95 241.47,440.29 242.08,438.99C242.69,437.68 242.99,435.65 242.99,432.91C242.99,430.2 242.69,428.18 242.08,426.85C241.47,425.52 240.37,424.86 238.78,424.86C237.18,424.85 236.08,425.51 235.48,426.84Z" style="fill:rgb(0,55,103);fill-rule:nonzero;"/>
        <path d="M262.37,421.64C263.32,421.16 264.5,420.92 265.9,420.92C266.93,420.92 267.88,421.24 268.75,421.88C269.62,422.52 270.2,423.37 270.48,424.43C272.04,423.06 273.31,422.13 274.29,421.65C275.27,421.17 276.48,420.93 277.92,420.93C281.29,420.93 282.97,423.27 282.97,427.95L282.97,443.81C282.97,444 282.88,444.09 282.69,444.09L278.06,444.09C277.87,444.09 277.78,444 277.78,443.81L277.78,429.4C277.78,426.53 277,425.1 275.44,425.1C274.01,425.1 272.51,425.8 270.95,427.2L270.95,443.8C270.95,443.99 270.86,444.08 270.67,444.08L266.04,444.08C265.85,444.08 265.76,443.99 265.76,443.8L265.76,429.39C265.76,426.52 264.98,425.09 263.42,425.09C261.99,425.09 260.49,425.79 258.93,427.19L258.93,443.79C258.93,443.98 258.84,444.07 258.65,444.07L254.02,444.07C253.83,444.07 253.74,443.98 253.74,443.79L253.74,429.66C253.74,426.42 253.47,424.16 252.94,422.88C252.88,422.69 252.85,422.58 252.85,422.55C252.85,422.4 252.93,422.29 253.08,422.22L256.63,421.05C257.07,420.89 257.32,420.88 257.38,421C257.72,421.53 258.1,422.68 258.5,424.46C260.13,423.07 261.42,422.13 262.37,421.64Z" style="fill:rgb(0,55,103);fill-rule:nonzero;"/>
        <path d="M321.56,444.54C321.25,444.7 321.03,444.77 320.9,444.77C320.77,444.77 320.62,444.66 320.43,444.44L309.16,429.94L308.88,429.94L308.88,443.46C308.88,443.86 308.68,444.07 308.27,444.07L303.92,444.07C303.51,444.07 303.31,443.87 303.31,443.46L303.31,413.39C303.31,412.98 303.51,412.78 303.92,412.78L308.27,412.78C308.67,412.78 308.88,412.98 308.88,413.39L308.88,426.86L309.11,426.86L319.91,412.45C320.1,412.2 320.29,412.07 320.47,412.07C320.66,412.07 320.86,412.13 321.08,412.26L324.35,413.94C324.54,414.03 324.63,414.14 324.63,414.27C324.63,414.36 324.57,414.49 324.44,414.64L314.29,428.02L325.56,442.05L325.65,442.28C325.65,442.41 325.54,442.53 325.32,442.65L321.56,444.54Z" style="fill:rgb(0,55,103);fill-rule:nonzero;"/>
        <path d="M330.03,444.07C329.75,444.07 329.58,444.04 329.52,443.98C329.46,443.92 329.43,443.75 329.43,443.47L329.43,413.4C329.43,412.99 329.63,412.79 330.04,412.79L337.34,412.79C340.74,412.79 343.34,413.35 345.15,414.47C346.96,415.59 347.86,417.64 347.86,420.6C347.86,422.38 347.45,423.79 346.62,424.83C345.79,425.87 344.4,426.85 342.43,427.75C346.76,428.97 348.93,431.51 348.93,435.37C348.93,438.61 348,440.87 346.15,442.15C344.29,443.43 341.48,444.07 337.71,444.07L330.03,444.07ZM334.98,416.94L334.98,426.01L336.8,426.01C340.45,426.01 342.27,424.42 342.27,421.24C342.27,418.37 340.62,416.94 337.31,416.94L334.98,416.94ZM334.98,430.18L334.98,439.91L337.04,439.91C339.16,439.91 340.74,439.56 341.79,438.86C342.83,438.16 343.36,436.87 343.36,435C343.36,433.16 342.85,431.9 341.82,431.21C340.79,430.52 339.23,430.18 337.14,430.18L334.98,430.18Z" style="fill:rgb(0,55,103);fill-rule:nonzero;"/>
        <path d="M353.69,428.68C353.69,423.25 354.69,419.11 356.68,416.26C358.68,413.41 361.59,411.98 365.43,411.98C366.99,411.98 368.64,412.43 370.39,413.34C371.95,414.15 372.73,414.73 372.73,415.07C372.73,415.2 372.67,415.37 372.54,415.58L370.76,418.25C370.7,418.34 370.62,418.39 370.53,418.39C370.44,418.39 369.94,418.08 369.03,417.45C367.88,416.67 366.78,416.28 365.76,416.28C363.55,416.28 361.96,417.15 361.01,418.88C360.06,420.61 359.58,423.47 359.58,427.46C359.58,430.55 359.76,433.03 360.12,434.9C360.48,436.77 361.11,438.18 362.01,439.13C362.91,440.08 364.16,440.56 365.75,440.56C366.72,440.56 368.23,440.06 370.29,439.06C370.54,438.93 370.73,438.87 370.85,438.87C371.01,438.87 371.11,438.95 371.18,439.1L372.63,441.72C372.75,441.94 372.82,442.11 372.82,442.23C372.82,442.57 372.16,443.06 370.86,443.68C369.27,444.46 367.46,444.85 365.43,444.85C357.6,444.87 353.69,439.47 353.69,428.68Z" style="fill:rgb(0,55,103);fill-rule:nonzero;"/>
        <path d="M406.82,416.62C406.73,416.93 406.49,417.09 406.12,417.09L396.67,417.09L396.67,443.47C396.67,443.87 396.48,444.08 396.11,444.08L391.71,444.08C391.3,444.08 391.1,443.88 391.1,443.47L391.1,413.4C391.1,412.99 391.3,412.79 391.71,412.79L407.33,412.79C407.64,412.79 407.8,412.9 407.8,413.12L407.71,413.59L406.82,416.62Z" style="fill:rgb(0,55,103);fill-rule:nonzero;"/>
        <path d="M406.87,429.66C406.87,426.54 406.6,424.28 406.08,422.88L405.99,422.51C405.99,422.39 406.07,422.29 406.22,422.23L409.77,421.06C410.17,420.94 410.42,420.92 410.52,421.01C410.8,421.29 411.17,422.16 411.64,423.63C413.54,421.82 415.6,420.92 417.81,420.92C422.96,420.92 425.53,424.77 425.53,432.47C425.53,440.73 422.79,444.86 417.3,444.86C416.27,444.86 415.38,444.75 414.61,444.53C413.85,444.31 413,443.94 412.06,443.41L412.06,452.62C412.06,452.78 412.04,452.89 411.99,452.95C411.94,453.01 411.84,453.06 411.69,453.09L407.57,453.88C407.45,453.91 407.31,453.93 407.15,453.93C407.02,453.93 406.95,453.89 406.92,453.81C406.89,453.73 406.87,453.6 406.87,453.41L406.87,429.66ZM412.06,426.86L412.06,439.91C413.31,440.6 414.57,440.94 415.85,440.94C417.56,440.94 418.74,440.32 419.38,439.07C420.02,437.82 420.34,435.7 420.34,432.71C420.34,430.03 420.03,428.05 419.4,426.77C418.78,425.49 417.7,424.85 416.17,424.85C414.65,424.85 413.28,425.52 412.06,426.86Z" style="fill:rgb(0,55,103);fill-rule:nonzero;"/>
        <path d="M443.59,439.49C442.62,443.01 441.66,446.29 440.69,449.31C440.19,450.84 439.36,452 438.21,452.79C437.06,453.58 435.64,453.98 433.95,453.98C432.8,453.98 431.64,453.8 430.47,453.44C429.3,453.08 428.51,452.7 428.11,452.29C428.05,452.23 428.02,452.16 428.02,452.08C428.02,452 428.05,451.9 428.11,451.78L429.51,448.83C429.54,448.74 429.6,448.69 429.67,448.69C429.75,448.69 429.85,448.72 429.97,448.78C431.37,449.47 432.57,449.81 433.57,449.81C434.72,449.81 435.6,449.51 436.19,448.92C436.78,448.33 437.28,447.38 437.69,446.07L438.3,444.06L435.82,444.06C435.6,444.06 435.45,443.94 435.35,443.69L428.15,422.55L428.06,422.18C428.06,421.93 428.26,421.79 428.67,421.76L432.51,421.34L432.93,421.29C433.12,421.29 433.25,421.33 433.33,421.41C433.41,421.49 433.48,421.67 433.54,421.95L436.58,433.27C437.64,437.26 438.33,440.05 438.64,441.64L438.92,441.64C439.29,439.71 439.9,436.92 440.74,433.27L443.22,422C443.28,421.66 443.37,421.46 443.48,421.39C443.59,421.33 443.8,421.31 444.11,421.34L447.71,421.76C447.93,421.79 448.08,421.83 448.15,421.88C448.22,421.93 448.27,422.03 448.27,422.18C448.27,422.4 448.24,422.59 448.18,422.74L443.59,439.49Z" style="fill:rgb(0,55,103);fill-rule:nonzero;"/>
        <path d="M465.43,444.07C465.24,444.07 465.15,443.98 465.15,443.79L465.15,429.38C465.15,426.51 464.15,425.08 462.16,425.08C460.73,425.08 459.23,425.78 457.67,427.18L457.67,443.78C457.67,443.97 457.58,444.06 457.39,444.06L452.76,444.06C452.57,444.06 452.48,443.97 452.48,443.78L452.48,429.65C452.48,426.53 452.21,424.27 451.68,422.87C451.62,422.68 451.59,422.57 451.59,422.54C451.59,422.39 451.67,422.28 451.82,422.21L455.37,421.04C455.81,420.88 456.06,420.87 456.12,420.99C456.43,421.4 456.81,422.55 457.24,424.45C458.46,423.23 459.64,422.34 460.79,421.76C461.94,421.18 463.24,420.89 464.67,420.89C468.44,420.89 470.33,423.04 470.33,427.35L470.33,443.77C470.33,443.96 470.24,444.05 470.05,444.05L465.43,444.05L465.43,444.07Z" style="fill:rgb(0,55,103);fill-rule:nonzero;"/>
        <path d="M155.61,356.92L155.61,388.46L112.53,388.46L112.53,304.71L155.61,304.71L155.61,342.39L155.87,342.39L181.19,304.71L232.8,304.71L195.01,347.93L230.7,388.46L181.44,388.46L155.89,356.92L155.61,356.92Z" style="fill:rgb(0,55,103);fill-rule:nonzero;"/>
        <path d="M475,384.96C464.78,387.83 451.51,389.59 439.53,389.59C396.93,389.59 365.7,378.24 365.7,345.42C365.7,315.65 395.94,302.78 437.39,302.78C448.92,302.78 463.55,303.98 475.01,307.4L474.99,336.14C466.49,331.32 458.02,328.37 445.87,328.37C430.02,328.37 414.25,335.64 414.25,346.17C414.25,356.71 429.95,363.97 445.87,363.97C457.84,363.97 466.49,360.91 474.99,356.29L475,384.96Z" style="fill:rgb(0,55,103);fill-rule:nonzero;"/>
        <path d="M239.9,304.71L326.87,304.71C349.55,304.71 356.92,312.93 356.92,325.72C356.92,339.99 343.19,346.21 329.2,346.88L329.2,347.13C343.58,348.18 357.64,349.76 357.64,366.65C357.64,377.62 350.25,388.47 325.36,388.47L239.9,388.47L239.9,304.71ZM282.93,371.4L305.37,371.4C313.85,371.4 316.69,368.13 316.69,363.31C316.69,358.55 313.79,355.07 305.45,355.07L282.93,355.07L282.93,371.4ZM282.93,340.16L304.35,340.16C312.69,340.16 315.93,337.06 315.93,332.24C315.93,326.76 312.68,323.97 304.94,323.97L282.93,323.97L282.93,340.16Z" style="fill:rgb(0,55,103);fill-rule:nonzero;"/>
        <path d="M296.49,234.92C330.72,234.92 358.39,206.92 358.39,172.36C358.39,137.8 330.71,109.85 296.49,109.85C262.25,109.85 234.5,137.81 234.5,172.36C234.5,206.91 262.25,234.92 296.49,234.92" style="fill:rgb(0,174,239);fill-rule:nonzero;"/>
        <path d="M342,224.62C330.14,237.26 309.02,249.89 282.12,249.89C261.19,249.89 243.15,241.93 231.69,233.1C163.38,240.11 112.53,249.18 112.53,249.18L112.53,277.04L475,276.97L475,221.3C475,221.3 412.86,220.92 342,224.62" style="fill:rgb(0,174,239);fill-rule:nonzero;"/>
    </g>
</svg>
